<svg width="16" height="16" viewBox="0 0 16 16" fill="none" xmlns="http://www.w3.org/2000/svg">
<path d="M8 1.5C4.41 1.5 1.5 4.41 1.5 8C1.5 11.59 4.41 14.5 8 14.5C8.55 14.5 9 14.05 9 13.5C9 13.24 8.9 13.01 8.74 12.84C8.59 12.67 8.49 12.45 8.49 12.2C8.49 11.65 8.94 11.2 9.49 11.2H10.99C12.92 11.2 14.49 9.63 14.49 7.7C14.5 4.27 11.59 1.5 8 1.5ZM4 8.5C3.45 8.5 3 8.05 3 7.5C3 6.95 3.45 6.5 4 6.5C4.55 6.5 5 6.95 5 7.5C5 8.05 4.55 8.5 4 8.5ZM6 5.5C5.45 5.5 5 5.05 5 4.5C5 3.95 5.45 3.5 6 3.5C6.55 3.5 7 3.95 7 4.5C7 5.05 6.55 5.5 6 5.5ZM10 5.5C9.45 5.5 9 5.05 9 4.5C9 3.95 9.45 3.5 10 3.5C10.55 3.5 11 3.95 11 4.5C11 5.05 10.55 5.5 10 5.5ZM12 8.5C11.45 8.5 11 8.05 11 7.5C11 6.95 11.45 6.5 12 6.5C12.55 6.5 13 6.95 13 7.5C13 8.05 12.55 8.5 12 8.5Z" fill="#9D4A06"/>
</svg>
