<svg width="16" height="16" viewBox="0 0 16 16" fill="none" xmlns="http://www.w3.org/2000/svg">
<path d="M4.5 7C5.33 7 6 6.1 6 5C6 3.9 5.33 3 4.5 3C3.67 3 3 3.9 3 5C3 6.1 3.67 7 4.5 7ZM11.5 7C12.33 7 13 6.1 13 5C13 3.9 12.33 3 11.5 3C10.67 3 10 3.9 10 5C10 6.1 10.67 7 11.5 7ZM6.5 6C7.33 6 8 5.1 8 4C8 2.9 7.33 2 6.5 2C5.67 2 5 2.9 5 4C5 5.1 5.67 6 6.5 6ZM9.5 6C10.33 6 11 5.1 11 4C11 2.9 10.33 2 9.5 2C8.67 2 8 2.9 8 4C8 5.1 8.67 6 9.5 6ZM8 7.5C5.5 7.5 3.5 9.5 4 12C4.5 14 6 14.5 8 14.5C10 14.5 11.5 14 12 12C12.5 9.5 10.5 7.5 8 7.5Z" fill="#9D4A06"/>
</svg>
