<svg width="16" height="16" viewBox="0 0 16 16" fill="none" xmlns="http://www.w3.org/2000/svg">
<path d="M-1.35647e-05 6.3482C-1.35647e-05 2.84648 2.8466 -0.000135723 6.34832 -0.000135723C9.85004 -0.000135723 12.6967 2.84648 12.6967 6.3482C12.6967 7.71301 12.2521 8.97644 11.5112 9.9981L15.0753 13.57C15.2859 13.7884 15.3951 14.0769 15.3951 14.3889C15.3951 15.0362 14.9194 15.5353 14.2564 15.5353C13.9523 15.5353 13.6481 15.434 13.4298 15.2078L9.84224 11.6203C8.84398 12.2988 7.65074 12.6965 6.34832 12.6965C2.8466 12.6965 -1.35647e-05 9.84992 -1.35647e-05 6.3482ZM1.62217 6.3482C1.62217 8.96084 3.73568 11.0744 6.34832 11.0744C8.96096 11.0744 11.0745 8.96084 11.0745 6.3482C11.0745 3.73555 8.96096 1.62204 6.34832 1.62204C3.73568 1.62204 1.62217 3.73555 1.62217 6.3482Z" fill="black"/>
</svg>
